<?xml version="1.0" encoding="ISO-8859-1" standalone="no"?>
<!-- Created with Make The Cut! -->
<!DOCTYPE svg PUBLIC "-//W3C//DTD SVG 1.1//EN" "http://www.w3.org/Graphics/SVG/1.1/DTD/svg11.dtd">
<svg mtc:dpi="90" xmlns="http://www.w3.org/2000/svg" version="1.1" width="auto" height="auto" viewBox="0 0 629.381 650" xmlns:inkscape="http://www.inkscape.org/namespaces/inkscape" xmlns:xlink="http://www.w3.org/1999/xlink" xmlns:mtc="http://www.make-the-cut.com/namespaces/make-the-cut">
	<g inkscape:groupmode="layer">
	</g>
	<g inkscape:groupmode="layer" label="Lattice&#95;33" id="Lattice&#95;33">
		<path label="SVG Path" id="SVG Path" fill="white" stroke="none"  stroke-linejoin="round" d="M254.394,450.357 L226.978,466.185 L226.978,437.682 L254.394,421.854 L281.81,437.682 L281.81,466.185 L254.394,450.357 z M279.079,470.917 L251.662,486.745 L251.662,518.402 L226.978,504.151 L226.978,472.494 L254.394,456.665 L279.079,470.917 z M281.81,507.305 L309.226,523.133 L284.542,537.385 L257.126,521.557 L257.126,489.9 L281.81,475.648 L281.81,507.305 z M407.864,434.528 L380.447,418.7 L405.132,404.448 L432.548,420.277 L432.548,451.934 L407.864,466.185 L407.864,434.528 z M410.595,470.917 L438.011,455.088 L438.011,423.431 L462.696,437.682 L462.695,469.34 L435.279,485.169 L410.595,470.917 z M374.984,450.357 L347.568,466.185 L347.569,437.682 L374.984,421.854 L402.4,437.682 L402.4,466.185 L374.984,450.357 z M347.568,371.214 L374.984,387.043 L402.4,371.214 L402.4,399.717 L374.984,415.545 L347.568,399.717 L347.568,371.214 z M399.669,470.917 L372.253,486.745 L372.253,518.402 L347.568,504.151 L347.569,472.494 L374.984,456.665 L399.669,470.917 z M402.4,475.648 L402.401,507.306 L429.817,523.134 L405.132,537.385 L377.716,521.557 L377.716,489.9 L402.4,475.648 z M435.28,491.477 L462.696,475.648 L462.696,504.151 L435.28,519.98 L407.864,504.151 L407.864,475.648 L435.28,491.477 z M377.716,350.653 L377.716,318.997 L402.4,333.248 L402.4,364.905 L374.984,380.734 L350.3,366.482 L377.716,350.653 z M347.568,330.093 L320.152,314.265 L344.837,300.014 L372.253,315.842 L372.253,347.499 L347.568,361.751 L347.568,330.093 z M342.105,361.751 L314.689,345.922 L287.273,361.751 L287.273,333.248 L314.689,317.419 L342.105,333.248 L342.105,361.751 z M339.374,366.482 L311.958,382.31 L311.958,413.968 L287.273,399.717 L287.273,368.059 L314.689,352.231 L339.374,366.482 z M468.159,330.093 L440.743,314.265 L465.427,300.014 L492.843,315.842 L492.843,347.5 L468.159,361.751 L468.159,330.093 z M470.89,366.482 L498.306,350.653 L498.306,318.997 L522.991,333.248 L522.991,364.905 L495.575,380.734 L470.89,366.482 z M435.28,345.922 L407.864,361.751 L407.864,333.248 L435.28,317.419 L462.696,333.248 L462.696,361.751 L435.28,345.922 z M459.964,366.482 L432.548,382.31 L432.548,413.968 L407.864,399.716 L407.864,368.059 L435.279,352.231 L459.964,366.482 z M462.696,371.214 L462.696,402.871 L490.112,418.699 L465.427,432.951 L438.011,417.122 L438.011,385.465 L462.696,371.214 z M495.575,387.043 L522.991,371.214 L522.991,399.717 L495.575,415.545 L468.159,399.717 L468.159,371.214 L495.575,387.043 z M402.4,266.779 L402.4,298.437 L429.816,314.266 L405.132,328.517 L377.716,312.688 L377.716,281.031 L402.4,266.779 z M407.864,266.779 L435.279,282.608 L462.695,266.779 L462.696,295.282 L435.279,311.111 L407.864,295.282 L407.864,266.779 z M438.011,246.219 L438.011,214.562 L462.696,228.813 L462.696,260.471 L435.279,276.299 L410.595,262.048 L438.011,246.219 z M407.864,225.659 L380.447,209.831 L405.132,195.579 L432.548,211.408 L432.548,243.065 L407.864,257.316 L407.864,225.659 z M498.307,141.784 L498.306,110.128 L522.991,124.379 L522.991,156.036 L495.575,171.865 L470.89,157.613 L498.307,141.784 z M468.159,190.848 L468.159,162.344 L495.575,178.173 L522.991,162.345 L522.991,190.848 L495.575,206.676 L468.159,190.848 z M468.159,121.224 L440.743,105.396 L465.428,91.1448 L492.843,106.973 L492.843,138.63 L468.159,152.882 L468.159,121.224 z M522.991,57.9098 L522.991,89.5675 L550.407,105.396 L525.723,119.647 L498.307,103.819 L498.306,72.1614 L522.991,57.9098 z M435.28,137.053 L407.864,152.882 L407.864,124.379 L435.28,108.55 L462.696,124.379 L462.696,152.882 L435.28,137.053 z M459.964,157.613 L432.548,173.442 L432.548,205.099 L407.864,190.848 L407.864,159.19 L435.279,143.362 L459.964,157.613 z M462.696,194.002 L490.111,209.83 L465.427,224.082 L438.011,208.253 L438.011,176.596 L462.696,162.344 L462.696,194.002 z M588.75,121.224 L561.333,105.396 L586.018,91.1448 L613.434,106.973 L613.434,138.63 L588.75,152.882 L588.75,121.224 z M555.871,137.053 L528.454,152.882 L528.454,124.379 L555.871,108.55 L583.286,124.379 L583.286,152.882 L555.871,137.053 z M528.454,57.9101 L555.871,73.7384 L583.286,57.9098 L583.286,86.4131 L555.871,102.241 L528.454,86.4133 L528.454,57.9101 z M553.139,173.442 L553.139,205.099 L528.454,190.848 L528.454,159.19 L555.87,143.362 L580.555,157.613 L553.139,173.442 z M583.286,162.344 L583.286,194.002 L610.702,209.83 L586.018,224.082 L558.602,208.253 L558.602,176.596 L583.286,162.344 z M588.749,162.344 L613.433,176.596 L613.433,205.099 L588.75,190.848 L588.749,162.344 z M613.434,144.939 L613.433,170.287 L591.482,157.613 L613.434,144.939 z M558.601,37.3503 L558.601,15.9449 L576.359,15.9449 L583.286,19.9445 L583.286,51.6018 L555.87,67.4303 L531.186,53.1792 L558.601,37.3503 z M522.991,48.4475 L495.575,32.6188 L468.159,48.4475 L468.159,19.9447 L475.086,15.9449 L516.064,15.9449 L522.991,19.9445 L522.991,48.4475 z M520.26,53.1788 L492.843,69.0075 L492.843,100.665 L468.159,86.4131 L468.159,54.7558 L495.575,38.9275 L520.26,53.1788 z M528.454,48.4469 L528.454,15.9449 L553.138,15.9449 L553.139,34.196 L528.454,48.4469 z M613.433,34.196 L588.75,48.4473 L588.75,19.9447 L595.677,15.9449 L613.433,15.9453 L613.433,34.196 z M613.433,40.5045 L613.434,100.665 L588.75,86.4131 L588.75,54.7558 L613.433,40.5045 z M317.42,455.088 L317.421,423.431 L342.105,437.682 L342.105,469.34 L314.689,485.168 L290.005,470.917 L317.42,455.088 z M287.273,475.648 L314.689,491.477 L342.105,475.648 L342.105,504.151 L314.689,519.98 L287.273,504.151 L287.273,475.648 z M287.273,434.528 L259.857,418.7 L284.542,404.448 L311.957,420.277 L311.957,451.934 L287.273,466.185 L287.273,434.528 z M342.105,371.214 L342.105,402.871 L369.521,418.699 L344.837,432.951 L317.421,417.122 L317.421,385.465 L342.105,371.214 z M495.575,450.357 L468.159,466.185 L468.159,437.682 L495.575,421.854 L522.991,437.682 L522.991,466.185 L495.575,450.357 z M520.26,470.917 L492.843,486.745 L492.843,518.402 L468.159,504.151 L468.159,472.494 L495.575,456.665 L520.26,470.917 z M522.991,507.306 L550.407,523.134 L525.723,537.385 L498.307,521.557 L498.306,489.899 L522.991,475.648 L522.991,507.306 z M613.433,451.934 L588.75,466.185 L588.75,437.682 L613.433,423.431 L613.433,451.934 z M613.433,458.242 L613.434,518.402 L588.75,504.151 L588.75,472.494 L613.433,458.242 z M588.75,330.093 L561.333,314.265 L586.018,300.014 L613.434,315.842 L613.434,347.5 L588.75,361.751 L588.75,330.093 z M583.286,361.751 L555.87,345.923 L528.454,361.751 L528.454,333.248 L555.871,317.419 L583.286,333.248 L583.286,361.751 z M580.555,366.482 L553.139,382.31 L553.139,413.968 L528.454,399.717 L528.454,368.059 L555.87,352.231 L580.555,366.482 z M588.749,371.214 L613.433,385.465 L613.433,413.968 L588.749,399.717 L588.749,371.214 z M613.433,353.808 L613.433,379.156 L591.482,366.482 L613.433,353.808 z M613.433,243.065 L588.75,257.316 L588.749,228.813 L613.433,214.562 L613.433,243.065 z M613.434,309.534 L588.75,295.282 L588.75,263.625 L613.433,249.373 L613.434,309.534 z M495.575,595.911 L522.991,580.083 L522.991,608.586 L516.064,612.585 L475.087,612.585 L468.159,608.586 L468.159,580.083 L495.575,595.911 z M498.307,559.523 L498.306,527.865 L522.991,542.117 L522.991,573.774 L495.575,589.603 L470.89,575.351 L498.307,559.523 z M468.159,538.962 L440.743,523.134 L465.428,508.883 L492.843,524.711 L492.843,556.369 L468.159,570.62 L468.159,538.962 z M435.28,554.791 L407.864,570.62 L407.864,542.117 L435.28,526.288 L462.696,542.117 L462.696,570.62 L435.28,554.791 z M459.964,575.351 L432.548,591.18 L432.548,612.585 L414.791,612.585 L407.864,608.586 L407.864,576.928 L435.279,561.1 L459.964,575.351 z M462.696,580.083 L462.696,612.585 L438.011,612.585 L438.011,594.334 L462.696,580.083 z M588.75,538.962 L561.333,523.134 L586.018,508.883 L613.434,524.711 L613.434,556.369 L588.75,570.62 L588.75,538.962 z M555.871,554.791 L528.454,570.62 L528.454,542.117 L555.871,526.288 L583.286,542.117 L583.286,570.62 L555.871,554.791 z M553.139,591.18 L553.138,612.585 L535.381,612.585 L528.455,608.586 L528.454,576.928 L555.87,561.1 L580.555,575.351 L553.139,591.18 z M588.749,580.083 L613.433,594.334 L613.433,612.585 L595.677,612.585 L588.75,608.586 L588.749,580.083 z M583.286,580.083 L583.286,612.585 L558.602,612.585 L558.602,594.334 L583.286,580.083 z M591.481,575.351 L613.434,562.677 L613.433,588.026 L591.481,575.351 z M374.984,241.488 L347.568,257.317 L347.568,228.813 L374.985,212.985 L402.4,228.813 L402.4,257.316 L374.984,241.488 z M399.669,262.048 L372.253,277.877 L372.253,309.534 L347.568,295.282 L347.568,263.625 L374.984,247.797 L399.669,262.048 z M528.454,225.659 L501.038,209.83 L525.723,195.579 L553.139,211.408 L553.138,243.065 L528.454,257.316 L528.454,225.659 z M531.186,262.048 L558.602,246.219 L558.601,214.562 L583.286,228.813 L583.286,260.471 L555.871,276.299 L531.186,262.048 z M495.575,241.488 L468.159,257.316 L468.159,228.814 L495.575,212.985 L522.991,228.813 L522.991,257.316 L495.575,241.488 z M492.843,277.877 L492.843,309.534 L468.159,295.282 L468.159,263.625 L495.575,247.797 L520.259,262.047 L492.843,277.877 z M522.991,266.779 L522.991,298.437 L550.406,314.266 L525.723,328.517 L498.307,312.688 L498.307,281.031 L522.991,266.779 z M555.871,282.608 L583.286,266.779 L583.286,295.282 L555.87,311.111 L528.454,295.282 L528.454,266.779 L555.871,282.608 z M254.394,595.911 L281.81,580.083 L281.81,608.586 L274.882,612.585 L233.906,612.585 L226.978,608.586 L226.978,580.083 L254.394,595.911 z M257.126,559.523 L257.125,527.865 L281.81,542.117 L281.81,573.774 L254.394,589.603 L229.71,575.351 L257.126,559.523 z M226.978,538.962 L199.562,523.134 L224.247,508.883 L251.662,524.711 L251.662,556.369 L226.978,570.62 L226.978,538.962 z M194.099,554.791 L166.682,570.62 L166.683,542.117 L194.098,526.288 L221.515,542.117 L221.515,570.62 L194.099,554.791 z M218.783,575.351 L191.367,591.18 L191.367,612.585 L173.61,612.585 L166.683,608.586 L166.683,576.928 L194.098,561.1 L218.783,575.351 z M221.515,580.083 L221.515,612.585 L196.83,612.585 L196.83,594.334 L221.515,580.083 z M347.568,538.962 L320.152,523.134 L344.837,508.883 L372.253,524.711 L372.253,556.368 L347.568,570.619 L347.568,538.962 z M350.3,575.351 L377.716,559.523 L377.716,527.865 L402.4,542.117 L402.401,573.774 L374.984,589.603 L350.3,575.351 z M314.689,554.791 L287.273,570.62 L287.273,542.117 L314.689,526.288 L342.105,542.117 L342.105,570.62 L314.689,554.791 z M311.957,591.18 L311.958,612.585 L294.201,612.585 L287.273,608.586 L287.273,576.928 L314.689,561.1 L339.374,575.351 L311.957,591.18 z M402.401,580.083 L402.4,608.586 L395.473,612.585 L354.496,612.585 L347.568,608.586 L347.568,580.083 L374.984,595.911 L402.401,580.083 z M342.105,580.083 L342.105,612.585 L317.421,612.585 L317.421,594.334 L342.105,580.083 z M558.601,455.088 L558.601,423.431 L583.286,437.682 L583.286,469.339 L555.87,485.168 L531.186,470.917 L558.601,455.088 z M528.454,504.151 L528.454,475.648 L555.87,491.477 L583.286,475.648 L583.286,504.151 L555.871,519.98 L528.454,504.151 z M528.454,434.528 L501.038,418.699 L525.723,404.448 L553.139,420.277 L553.138,451.934 L528.454,466.185 L528.454,434.528 z M583.286,371.214 L583.286,402.871 L610.702,418.699 L586.018,432.951 L558.602,417.122 L558.602,385.465 L583.286,371.214 z M40.6287,266.779 L40.6287,298.436 L68.0446,314.265 L43.3604,328.517 L15.9442,312.688 L15.9444,281.03 L40.6287,266.779 z M73.5079,282.608 L100.924,266.779 L100.924,295.282 L73.508,311.111 L46.0921,295.282 L46.0921,266.779 L73.5079,282.608 z M15.9448,243.065 L15.9448,214.562 L40.6289,228.813 L40.6289,257.316 L15.9448,243.065 z M15.9446,274.722 L15.9446,249.374 L37.8972,262.048 L15.9446,274.722 z M257.126,141.785 L257.125,110.127 L281.81,124.379 L281.81,156.036 L254.394,171.865 L229.71,157.613 L257.126,141.785 z M226.978,162.345 L254.394,178.173 L281.81,162.345 L281.81,190.847 L254.394,206.676 L226.978,190.848 L226.978,162.345 z M226.978,121.224 L199.562,105.396 L224.247,91.1445 L251.662,106.973 L251.662,138.63 L226.978,152.882 L226.978,121.224 z M281.81,57.9098 L281.81,89.5673 L309.226,105.396 L284.542,119.647 L257.126,103.819 L257.126,72.1616 L281.81,57.9098 z M194.099,137.053 L166.682,152.882 L166.683,124.379 L194.098,108.55 L221.515,124.379 L221.515,152.882 L194.099,137.053 z M218.783,157.613 L191.367,173.442 L191.367,205.099 L166.683,190.848 L166.683,159.19 L194.098,143.362 L218.783,157.613 z M221.515,194.002 L248.93,209.83 L224.247,224.082 L196.83,208.253 L196.83,176.596 L221.515,162.344 L221.515,194.002 z M347.568,121.224 L320.152,105.396 L344.837,91.1445 L372.253,106.973 L372.253,138.63 L347.568,152.882 L347.568,121.224 z M350.3,157.613 L377.716,141.785 L377.716,110.128 L402.4,124.379 L402.401,156.036 L374.984,171.865 L350.3,157.613 z M314.689,137.053 L287.273,152.882 L287.273,124.379 L314.689,108.55 L342.105,124.379 L342.105,152.882 L314.689,137.053 z M287.273,57.9098 L314.689,73.7386 L342.105,57.9101 L342.105,86.4131 L314.689,102.242 L287.273,86.4128 L287.273,57.9098 z M311.957,173.442 L311.958,205.099 L287.273,190.848 L287.273,159.19 L314.689,143.362 L339.374,157.613 L311.957,173.442 z M342.105,162.344 L342.105,194.002 L369.521,209.83 L344.837,224.082 L317.421,208.254 L317.421,176.596 L342.105,162.344 z M374.984,178.173 L402.4,162.345 L402.401,190.848 L374.984,206.676 L347.568,190.848 L347.568,162.344 L374.984,178.173 z M317.421,37.3503 L317.421,15.9449 L335.178,15.9449 L342.105,19.9445 L342.105,51.6022 L314.689,67.4303 L290.004,53.1794 L317.421,37.3503 z M281.81,48.4475 L254.394,32.619 L226.978,48.4473 L226.978,19.9447 L233.906,15.9449 L274.883,15.9449 L281.81,19.9445 L281.81,48.4475 z M279.079,53.1788 L251.662,69.0075 L251.662,100.665 L226.978,86.4128 L226.978,54.7558 L254.394,38.9275 L279.079,53.1788 z M287.273,48.4469 L287.273,15.9449 L311.957,15.9449 L311.957,34.196 L287.273,48.4469 z M438.011,37.3505 L438.011,15.9449 L455.768,15.9449 L462.696,19.9445 L462.695,51.6022 L435.279,67.4301 L410.595,53.1786 L438.011,37.3505 z M402.4,48.4475 L374.984,32.6188 L347.569,48.4475 L347.568,19.9447 L354.496,15.9449 L395.473,15.9449 L402.4,19.9445 L402.4,48.4475 z M15.9445,110.128 L40.6287,124.379 L40.6291,156.036 L15.9452,170.288 L15.9445,110.128 z M15.9448,205.099 L15.9452,176.596 L40.6291,162.345 L40.6288,190.848 L15.9448,205.099 z M40.6287,57.9098 L40.6287,89.5671 L68.0448,105.396 L43.3601,119.647 L15.9444,103.819 L15.9446,72.1616 L40.6287,57.9098 z M106.387,121.224 L78.9713,105.396 L103.655,91.1445 L131.072,106.973 L131.072,138.63 L106.387,152.882 L106.387,121.224 z M109.119,157.614 L136.535,141.785 L136.535,110.128 L161.219,124.379 L161.219,156.036 L133.803,171.864 L109.119,157.614 z M73.5079,137.053 L46.0922,152.882 L46.0919,124.379 L73.5079,108.55 L100.924,124.379 L100.924,152.882 L73.5079,137.053 z M46.092,57.9096 L73.5078,73.7382 L100.924,57.9096 L100.924,86.4131 L73.5078,102.241 L46.092,86.4128 L46.092,57.9096 z M70.7764,173.442 L70.7764,205.099 L46.0925,190.848 L46.0922,159.19 L73.5079,143.362 L98.1927,157.613 L70.7764,173.442 z M100.924,162.344 L100.924,194.002 L128.34,209.83 L103.656,224.082 L76.2396,208.253 L76.2397,176.596 L100.924,162.344 z M133.803,178.173 L161.219,162.345 L161.219,190.848 L133.803,206.676 L106.387,190.848 L106.387,162.344 L133.803,178.173 z M76.2397,37.3498 L76.2398,15.9449 L93.9966,15.9449 L100.924,19.9447 L100.924,51.6018 L73.5081,67.4303 L48.8237,53.1792 L76.2397,37.3498 z M46.0921,48.4471 L46.092,15.9449 L70.7763,15.9449 L70.7764,34.196 L46.0921,48.4471 z M15.9446,15.9453 L33.7014,15.9449 L40.6288,19.945 L40.6288,48.4471 L15.9448,34.1958 L15.9446,15.9453 z M15.9446,65.8529 L15.9446,40.5045 L37.897,53.1786 L15.9446,65.8529 z M196.83,37.3505 L196.83,15.9449 L214.587,15.9451 L221.515,19.9445 L221.514,51.6018 L194.099,67.4303 L169.414,53.1788 L196.83,37.3505 z M161.219,48.4477 L133.803,32.6184 L106.387,48.4469 L106.387,19.945 L113.315,15.9449 L154.292,15.9453 L161.22,19.9445 L161.219,48.4477 z M158.488,53.1786 L131.072,69.0075 L131.072,100.665 L106.387,86.4131 L106.387,54.7556 L133.803,38.9275 L158.488,53.1786 z M161.219,57.9098 L161.219,89.5671 L188.635,105.396 L163.951,119.648 L136.535,103.819 L136.535,72.1611 L161.219,57.9098 z M194.099,73.7384 L221.515,57.9101 L221.515,86.4128 L194.098,102.241 L166.683,86.4131 L166.682,57.9096 L194.099,73.7384 z M166.683,48.4471 L166.683,15.9449 L191.367,15.9449 L191.367,34.196 L166.683,48.4471 z M40.6291,364.905 L15.9449,379.156 L15.9445,318.996 L40.6289,333.248 L40.6291,364.905 z M15.9452,413.968 L15.9452,385.465 L40.6288,371.214 L40.6288,399.717 L15.9452,413.968 z M46.092,225.659 L18.6763,209.831 L43.3602,195.579 L70.7764,211.408 L70.7765,243.065 L46.0922,257.317 L46.092,225.659 z M48.8238,262.048 L76.2397,246.219 L76.24,214.562 L100.924,228.813 L100.924,260.471 L73.5078,276.299 L48.8238,262.048 z M194.098,345.923 L166.683,361.751 L166.682,333.248 L194.098,317.419 L221.515,333.248 L221.515,361.751 L194.098,345.923 z M218.783,366.482 L191.367,382.31 L191.367,413.968 L166.683,399.716 L166.682,368.059 L194.099,352.231 L218.783,366.482 z M221.515,371.214 L221.515,402.871 L248.931,418.699 L224.246,432.951 L196.831,417.122 L196.83,385.465 L221.515,371.214 z M254.394,387.042 L281.81,371.214 L281.81,399.717 L254.393,415.545 L226.978,399.717 L226.977,371.214 L254.394,387.042 z M161.219,266.779 L161.219,298.436 L188.635,314.265 L163.951,328.517 L136.535,312.688 L136.535,281.03 L161.219,266.779 z M166.682,266.779 L194.098,282.608 L221.514,266.779 L221.515,295.282 L194.098,311.111 L166.682,295.282 L166.682,266.779 z M196.83,246.219 L196.83,214.562 L221.515,228.813 L221.515,260.471 L194.099,276.299 L169.414,262.048 L196.83,246.219 z M166.683,225.659 L139.267,209.831 L163.951,195.579 L191.367,211.408 L191.367,243.065 L166.683,257.317 L166.683,225.659 z M133.803,241.488 L106.387,257.316 L106.387,228.813 L133.803,212.985 L161.219,228.813 L161.219,257.316 L133.803,241.488 z M158.488,262.048 L131.072,277.876 L131.072,309.533 L106.388,295.282 L106.387,263.625 L133.803,247.796 L158.488,262.048 z M287.273,225.659 L259.857,209.831 L284.542,195.579 L311.957,211.408 L311.957,243.065 L287.273,257.316 L287.273,225.659 z M290.005,262.048 L317.421,246.219 L317.421,214.562 L342.105,228.813 L342.105,260.471 L314.689,276.299 L290.005,262.048 z M254.393,241.488 L226.978,257.316 L226.978,228.813 L254.394,212.985 L281.81,228.813 L281.81,257.316 L254.393,241.488 z M251.662,277.877 L251.662,309.534 L226.978,295.282 L226.978,263.625 L254.394,247.796 L279.079,262.048 L251.662,277.877 z M281.81,266.779 L281.81,298.436 L309.226,314.265 L284.542,328.516 L257.125,312.688 L257.126,281.031 L281.81,266.779 z M314.689,282.608 L342.105,266.779 L342.105,295.282 L314.689,311.111 L287.273,295.282 L287.273,266.779 L314.689,282.608 z M15.945,594.334 L40.6288,580.083 L40.6289,608.586 L33.7013,612.585 L15.9449,612.585 L15.945,594.334 z M15.9448,527.865 L40.6287,542.117 L40.6291,573.774 L15.9452,588.026 L15.9448,527.865 z M106.387,538.962 L78.9713,523.134 L103.655,508.883 L131.072,524.711 L131.072,556.369 L106.387,570.62 L106.387,538.962 z M109.119,575.351 L136.535,559.522 L136.535,527.866 L161.219,542.117 L161.219,573.774 L133.803,589.603 L109.119,575.351 z M73.5079,554.791 L46.0922,570.62 L46.0919,542.117 L73.5079,526.288 L100.924,542.117 L100.924,570.62 L73.5079,554.791 z M70.7764,591.18 L70.7765,612.585 L53.0195,612.585 L46.092,608.586 L46.0922,576.928 L73.5079,561.1 L98.1927,575.351 L70.7764,591.18 z M161.219,580.083 L161.219,608.586 L154.292,612.585 L113.315,612.585 L106.388,608.586 L106.387,580.083 L133.803,595.911 L161.219,580.083 z M100.924,580.083 L100.924,612.585 L76.2397,612.585 L76.2398,594.334 L100.924,580.083 z M399.669,53.1788 L372.253,69.0075 L372.253,100.665 L347.568,86.4131 L347.569,54.756 L374.984,38.927 L399.669,53.1788 z M402.4,57.9098 L402.401,89.5675 L429.817,105.396 L405.132,119.647 L377.716,103.819 L377.716,72.1616 L402.4,57.9098 z M435.28,73.7386 L462.696,57.9101 L462.696,86.4133 L435.28,102.241 L407.864,86.4131 L407.864,57.9098 L435.28,73.7386 z M407.864,48.4469 L407.864,15.9449 L432.548,15.9449 L432.548,34.196 L407.864,48.4469 z M76.2397,455.088 L76.24,423.431 L100.924,437.682 L100.924,469.34 L73.5081,485.168 L48.8238,470.917 L76.2397,455.088 z M46.0921,475.648 L73.5078,491.477 L100.924,475.648 L100.924,504.151 L73.5079,519.98 L46.092,504.151 L46.0921,475.648 z M46.092,434.528 L18.6763,418.7 L43.3602,404.448 L70.7764,420.277 L70.7765,451.934 L46.0922,466.185 L46.092,434.528 z M100.924,371.214 L100.924,402.871 L128.34,418.699 L103.656,432.951 L76.2397,417.122 L76.2399,385.465 L100.924,371.214 z M40.6287,507.305 L68.0448,523.134 L43.3601,537.385 L15.9444,521.557 L15.9446,489.9 L40.6287,475.648 L40.6287,507.305 z M40.6288,466.185 L15.9448,451.934 L15.9448,423.431 L40.6288,437.682 L40.6288,466.185 z M15.9446,483.591 L15.9446,458.243 L37.897,470.917 L15.9446,483.591 z M166.683,434.528 L139.267,418.7 L163.951,404.448 L191.367,420.277 L191.367,451.934 L166.683,466.185 L166.683,434.528 z M169.414,470.917 L196.83,455.088 L196.83,423.431 L221.515,437.682 L221.514,469.339 L194.098,485.168 L169.414,470.917 z M133.803,450.357 L106.387,466.185 L106.387,437.682 L133.803,421.854 L161.219,437.682 L161.219,466.185 L133.803,450.357 z M106.387,371.214 L133.803,387.042 L161.219,371.214 L161.219,399.717 L133.803,415.545 L106.387,399.716 L106.387,371.214 z M158.488,470.917 L131.072,486.745 L131.072,518.402 L106.387,504.151 L106.387,472.494 L133.803,456.665 L158.488,470.917 z M161.219,475.648 L161.219,507.305 L188.635,523.134 L163.951,537.385 L136.535,521.557 L136.535,489.899 L161.219,475.648 z M194.099,491.477 L221.515,475.648 L221.515,504.151 L194.098,519.98 L166.683,504.151 L166.682,475.648 L194.099,491.477 z M136.535,350.653 L136.535,318.997 L161.219,333.248 L161.219,364.905 L133.803,380.734 L109.119,366.482 L136.535,350.653 z M106.387,330.093 L78.9713,314.265 L103.656,300.013 L131.072,315.842 L131.072,347.5 L106.387,361.751 L106.387,330.093 z M100.924,361.751 L73.5079,345.922 L46.0922,361.751 L46.092,333.248 L73.5083,317.419 L100.924,333.248 L100.924,361.751 z M98.1923,366.482 L70.7764,382.31 L70.7764,413.968 L46.0925,399.717 L46.0922,368.059 L73.5078,352.231 L98.1923,366.482 z M226.978,330.093 L199.562,314.265 L224.247,300.014 L251.662,315.842 L251.662,347.5 L226.978,361.751 L226.978,330.093 z M229.71,366.482 L257.126,350.653 L257.125,318.996 L281.81,333.248 L281.81,364.905 L254.394,380.734 L229.71,366.482 z M629.378,1.07288e-005 L4.29153e-005,1.07288e-005 L0.000128746,628.53 L629.379,628.53 L629.378,1.07288e-005 z " />
	</g>
</svg>
